<svg width="31" height="31" viewBox="0 0 31 31" fill="none" xmlns="http://www.w3.org/2000/svg">
<g clip-path="url(#clip0)">
<path d="M10.1756 28.1656C21.4964 28.1656 27.6884 18.7864 27.6884 10.6528C27.6884 10.3864 27.6884 10.1212 27.6704 9.85721C28.875 8.98586 29.9149 7.90709 30.7412 6.67123C29.6179 7.16898 28.4262 7.49535 27.206 7.63961C28.4906 6.87063 29.4527 5.6602 29.912 4.2352C28.7038 4.95209 27.3819 5.4574 26.0036 5.72922C24.8398 4.49166 23.2144 3.78906 21.5157 3.78906C18.1359 3.78906 15.3549 6.57016 15.3549 9.94984C15.3549 10.4187 15.4085 10.8861 15.5144 11.3428C10.568 11.0949 5.95307 8.75523 2.8292 4.91201C1.20475 7.70846 2.04527 11.3325 4.73479 13.1284C3.75539 13.0994 2.79703 12.8351 1.94121 12.358V12.436C1.94203 15.3548 4.01818 17.8917 6.8792 18.4696C5.97311 18.7167 5.02219 18.7528 4.10004 18.5752C4.90436 21.0763 7.22373 22.8003 9.85043 22.8496C7.67133 24.5621 4.97795 25.4924 2.20641 25.4896C1.71668 25.4887 1.22742 25.459 0.741211 25.4008C3.5557 27.2069 6.83145 28.1652 10.1756 28.1608" fill="white"/>
</g>
<defs>
<clipPath id="clip0">
<rect width="30" height="30" fill="white" transform="translate(0.741211 0.976562)"/>
</clipPath>
</defs>
</svg>
