<svg width="51" height="51" viewBox="0 0 51 51" fill="none" xmlns="http://www.w3.org/2000/svg">
<path d="M26.9411 24.1112C26.9411 23.5907 26.9322 23.0698 26.9451 22.5496C26.9509 22.3125 26.8748 22.2235 26.6289 22.2252C25.3495 22.2344 24.0701 22.2339 22.7906 22.2254C22.5561 22.2239 22.4685 22.2877 22.4689 22.5379C22.4755 27.2517 22.4754 31.9654 22.4691 36.6792C22.4687 36.9241 22.5469 36.9976 22.7865 36.9961C24.1248 36.9873 25.4633 36.9866 26.8016 36.9966C27.0451 36.9985 27.1134 36.9233 27.1124 36.6809C27.1037 34.4419 27.1009 32.2027 27.1119 29.9638C27.1146 29.4109 27.1486 28.8552 27.2141 28.3063C27.2856 27.707 27.4774 27.1404 27.8986 26.6834C28.4392 26.0966 29.1415 25.9643 29.8997 25.9785C30.958 25.9983 31.6174 26.4913 31.9197 27.5043C32.1146 28.1571 32.1303 28.8284 32.1306 29.5011C32.1318 31.8832 32.1308 34.2653 32.1315 36.6474C32.1316 36.9802 32.1423 36.9913 32.4695 36.9915C33.7742 36.9925 35.0789 36.9921 36.3836 36.9918C36.7904 36.9918 36.7924 36.9912 36.7908 36.5902C36.7789 33.7041 36.7713 30.8178 36.7506 27.9317C36.7442 27.0475 36.6256 26.1733 36.3835 25.321C36.0128 24.0161 35.3144 22.9518 34.0318 22.396C32.6898 21.8144 31.2844 21.7092 29.8636 22.0577C28.6373 22.3586 27.6681 23.0468 26.9411 24.1112ZM19.6819 29.6243C19.6819 27.2676 19.6778 24.9111 19.688 22.5545C19.689 22.2988 19.6208 22.2222 19.3652 22.2243C18.0355 22.2352 16.7056 22.2345 15.3759 22.2248C15.1267 22.2229 15.0428 22.2927 15.0431 22.5525C15.0503 27.2573 15.0503 31.962 15.0432 36.6668C15.0428 36.9242 15.1219 36.9986 15.3739 36.9966C16.7036 36.9865 18.0334 36.9864 19.3632 36.9967C19.6153 36.9987 19.6893 36.9279 19.6882 36.6688C19.6776 34.3207 19.6819 31.9724 19.6819 29.6243ZM14.6914 17.64C14.6917 19.1094 15.8951 20.3398 17.3667 20.3251C18.8852 20.3099 20.0635 19.1662 20.0607 17.637C20.0579 16.0812 18.8584 14.9479 17.3639 14.9566C15.7702 14.9659 14.6942 16.2414 14.6914 17.64Z" fill="white"/>
</svg>
