<svg width="32" height="24" viewBox="0 0 32 24" fill="none" xmlns="http://www.w3.org/2000/svg">
<path d="M26.2367 1.86075L10.4868 17.6106C9.45909 18.6383 9.45909 20.3045 10.4868 21.3322C11.5145 22.3599 13.1807 22.3599 14.2084 21.3322L29.9583 5.58237C30.986 4.55467 30.986 2.88845 29.9583 1.86075C28.9306 0.833055 27.2643 0.833055 26.2367 1.86075Z" fill="#8D9ED0"/>
<path d="M1.86081 12.748L10.4458 21.333C11.4735 22.3607 13.1398 22.3607 14.1674 21.333C15.1951 20.3053 15.1951 18.6391 14.1674 17.6114L5.58243 9.0264C4.55473 7.9987 2.88851 7.9987 1.86081 9.0264C0.833118 10.0541 0.833118 11.7203 1.86081 12.748Z" fill="#8D9ED0"/>
</svg>
