<svg width="99" height="94" viewBox="0 0 99 94" fill="none" xmlns="http://www.w3.org/2000/svg">
<ellipse cx="49.5" cy="47" rx="49.5" ry="47" fill="#8DCEA8"/>
<path d="M51.008 68.768C48.064 68.768 45.3973 68.256 43.008 67.232C40.6187 66.1653 38.6987 64.544 37.248 62.368C35.7973 60.192 35.0293 57.4613 34.944 54.176H43.008C43.0507 56.352 43.7547 58.1867 45.12 59.68C46.528 61.1307 48.4907 61.856 51.008 61.856C53.3973 61.856 55.232 61.1947 56.512 59.872C57.792 58.5493 58.432 56.8853 58.432 54.88C58.432 52.5333 57.5787 50.7627 55.872 49.568C54.208 48.3307 52.0533 47.712 49.408 47.712H46.08V40.992H49.472C51.648 40.992 53.4613 40.48 54.912 39.456C56.3627 38.432 57.088 36.9173 57.088 34.912C57.088 33.248 56.5333 31.9253 55.424 30.944C54.3573 29.92 52.864 29.408 50.944 29.408C48.8533 29.408 47.2107 30.0267 46.016 31.264C44.864 32.5013 44.224 34.016 44.096 35.808H36.096C36.2667 31.6693 37.696 28.4053 40.384 26.016C43.1147 23.6267 46.6347 22.432 50.944 22.432C54.016 22.432 56.5973 22.9867 58.688 24.096C60.8213 25.1627 62.4213 26.592 63.488 28.384C64.5973 30.176 65.152 32.16 65.152 34.336C65.152 36.8533 64.448 38.9867 63.04 40.736C61.6747 42.4427 59.968 43.5947 57.92 44.192C60.4373 44.704 62.4853 45.9413 64.064 47.904C65.6427 49.824 66.432 52.256 66.432 55.2C66.432 57.6747 65.8347 59.936 64.64 61.984C63.4453 64.032 61.696 65.6747 59.392 66.912C57.1307 68.1493 54.336 68.768 51.008 68.768Z" fill="#24366B"/>
</svg>
