<svg width="99" height="94" viewBox="0 0 99 94" fill="none" xmlns="http://www.w3.org/2000/svg">
<ellipse cx="49.5" cy="47" rx="49.5" ry="47" fill="#8DCEA8"/>
<path d="M35.264 68V62.048C37.9947 59.7867 40.64 57.5467 43.2 55.328C45.8027 53.1093 48.1067 50.912 50.112 48.736C52.16 46.56 53.7813 44.448 54.976 42.4C56.2133 40.3093 56.832 38.2827 56.832 36.32C56.832 34.4853 56.32 32.864 55.296 31.456C54.3147 30.048 52.672 29.344 50.368 29.344C48.0213 29.344 46.2507 30.112 45.056 31.648C43.8613 33.184 43.264 35.04 43.264 37.216H35.328C35.4133 33.9307 36.1387 31.2 37.504 29.024C38.8693 26.8053 40.6827 25.1627 42.944 24.096C45.2053 22.9867 47.744 22.432 50.56 22.432C55.1253 22.432 58.6667 23.6907 61.184 26.208C63.744 28.6827 65.024 31.904 65.024 35.872C65.024 38.3467 64.448 40.7573 63.296 43.104C62.1867 45.4507 60.7147 47.712 58.88 49.888C57.0453 52.064 55.0613 54.112 52.928 56.032C50.7947 57.9093 48.7253 59.6587 46.72 61.28H66.112V68H35.264Z" fill="#24366B"/>
</svg>
